<svg width="24" height="24" viewBox="0 0 24 24" fill="none" xmlns="http://www.w3.org/2000/svg">
<path d="M2 1C1.44772 1 1 1.44772 1 2C1 2.55228 1.44772 3 2 3H3.9764L7.80531 10.8141L7.96831 11.2488C6.68031 11.7042 5.88953 12.7363 5.81445 13.9376C5.76631 14.7079 6.03189 15.4885 6.6058 16.0746C7.18649 16.6677 8.01974 17 9 17H20C20.5523 17 21 16.5523 21 16C21 15.4477 20.5523 15 20 15H9C8.48026 15 8.18851 14.8323 8.03482 14.6754C7.87436 14.5115 7.79619 14.2921 7.81055 14.0624C7.8341 13.6856 8.17591 13 9.5 13H18.9845C19.5978 13 20.1494 12.6266 20.3772 12.0571L23.1772 5.05709C23.5713 4.07179 22.8457 3 21.7845 3H6.21557L6.20362 3.00005L5.49799 1.55998C5.33005 1.21725 4.98167 1 4.6 1H2Z" fill="#4F4F4F"/>
<path d="M11 20.75C11 21.9926 9.99264 23 8.75 23C7.50736 23 6.5 21.9926 6.5 20.75C6.5 19.5074 7.50736 18.5 8.75 18.5C9.99264 18.5 11 19.5074 11 20.75Z" fill="#4F4F4F"/>
<path d="M18.75 23C19.9926 23 21 21.9926 21 20.75C21 19.5074 19.9926 18.5 18.75 18.5C17.5074 18.5 16.5 19.5074 16.5 20.75C16.5 21.9926 17.5074 23 18.75 23Z" fill="#4F4F4F"/>
</svg>
