<svg width="18" height="16" viewBox="0 0 18 16" fill="none" xmlns="http://www.w3.org/2000/svg">
<path fill-rule="evenodd" clip-rule="evenodd" d="M1.5 0C0.671573 0 0 0.671573 0 1.5V2.5C0 3.32843 0.671573 4 1.5 4H2.5C3.32843 4 4 3.32843 4 2.5V1.5C4 0.671573 3.32843 0 2.5 0H1.5ZM1.5 6C0.671573 6 0 6.67157 0 7.5V8.5C0 9.32843 0.671573 10 1.5 10H2.5C3.32843 10 4 9.32843 4 8.5V7.5C4 6.67157 3.32843 6 2.5 6H1.5ZM0 13.5C0 12.6716 0.671573 12 1.5 12H2.5C3.32843 12 4 12.6716 4 13.5V14.5C4 15.3284 3.32843 16 2.5 16H1.5C0.671573 16 0 15.3284 0 14.5V13.5ZM7.5 0C6.67157 0 6 0.671573 6 1.5V2.5C6 3.32843 6.67157 4 7.5 4H16.5C17.3284 4 18 3.32843 18 2.5V1.5C18 0.671573 17.3284 0 16.5 0H7.5ZM6 7.5C6 6.67157 6.67157 6 7.5 6H16.5C17.3284 6 18 6.67157 18 7.5V8.5C18 9.32843 17.3284 10 16.5 10H7.5C6.67157 10 6 9.32843 6 8.5V7.5ZM7.5 12C6.67157 12 6 12.6716 6 13.5V14.5C6 15.3284 6.67157 16 7.5 16H16.5C17.3284 16 18 15.3284 18 14.5V13.5C18 12.6716 17.3284 12 16.5 12H7.5Z" fill="#4F4F4F"/>
</svg>
