<svg width="17" height="17" viewBox="0 0 17 17" fill="none" xmlns="http://www.w3.org/2000/svg">
<path fill-rule="evenodd" clip-rule="evenodd" d="M15.941 1.70711C16.3316 1.31658 16.3316 0.683417 15.941 0.292893C15.5505 -0.0976311 14.9174 -0.0976311 14.5268 0.292893L8.11697 6.70276L1.70711 0.292893C1.31658 -0.0976311 0.683417 -0.0976311 0.292893 0.292893C-0.0976311 0.683417 -0.0976311 1.31658 0.292893 1.70711L6.70276 8.11697L0.292893 14.5268C-0.0976311 14.9174 -0.0976311 15.5505 0.292893 15.941C0.683417 16.3316 1.31658 16.3316 1.70711 15.941L8.11697 9.53118L14.5268 15.941C14.9174 16.3316 15.5505 16.3316 15.941 15.941C16.3316 15.5505 16.3316 14.9174 15.941 14.5268L9.53118 8.11697L15.941 1.70711Z" fill="#BDBDBD"/>
</svg>
