<svg width="24" height="24" viewBox="0 0 24 24" fill="none" xmlns="http://www.w3.org/2000/svg">
<path d="M8.00024 3H19.7002C20.045 3 20.3757 3.0862 20.6195 3.23964C20.8633 3.39308 21.0002 3.60119 21.0002 3.81818V20.1818C21.0002 20.3988 20.8633 20.6069 20.6195 20.7604C20.3757 20.9138 20.045 21 19.7002 21H8.00024" stroke="#4F4F4F" stroke-width="2" stroke-linecap="round" stroke-linejoin="round"/>
<path fill-rule="evenodd" clip-rule="evenodd" d="M12.5299 6.22003L17.7787 11.4689C18.0693 11.7626 18.0693 12.2374 17.7787 12.5311L12.5299 17.78C12.0613 18.2486 11.2489 17.9206 11.2489 17.2488V14H4.75008H3.50024C2.67182 14 2.00024 13.3284 2.00024 12.5V11.5C2.00024 10.6716 2.67182 10 3.50024 10H4.75008H11.2489V6.75116C11.2489 6.07944 12.0613 5.75138 12.5299 6.22003Z" fill="#4F4F4F"/>
</svg>
