<svg width="24" height="24" viewBox="0 0 24 24" fill="none" xmlns="http://www.w3.org/2000/svg">
<path d="M20 7H4" stroke="#4F4F4F" stroke-width="2" stroke-linecap="round" stroke-linejoin="round"/>
<path d="M9 10C10.6569 10 12 8.65685 12 7C12 5.34315 10.6569 4 9 4C7.34315 4 6 5.34315 6 7C6 8.65685 7.34315 10 9 10Z" fill="#4F4F4F"/>
<path d="M20 17H4" stroke="#4F4F4F" stroke-width="2" stroke-linecap="round" stroke-linejoin="round"/>
<path d="M15 20C16.6569 20 18 18.6569 18 17C18 15.3431 16.6569 14 15 14C13.3431 14 12 15.3431 12 17C12 18.6569 13.3431 20 15 20Z" fill="#4F4F4F"/>
</svg>
