<svg width="16" height="16" viewBox="0 0 16 16" fill="none" xmlns="http://www.w3.org/2000/svg">
<path d="M7.7619 0.666687C6.23431 0.6685 4.7698 1.27614 3.68962 2.35631C2.60945 3.43649 2.00181 4.901 2 6.42859C2 11.3587 7.23809 15.0827 7.46112 15.2387C7.54933 15.3003 7.65432 15.3334 7.7619 15.3334C7.86949 15.3334 7.97448 15.3003 8.06269 15.2387C8.28571 15.0827 13.5238 11.3587 13.5238 6.42859C13.522 4.901 12.9144 3.43649 11.8342 2.35631C10.754 1.27614 9.2895 0.668499 7.7619 0.666687ZM7.76229 4.33354C8.17669 4.33354 8.58178 4.45643 8.92634 4.68665C9.2709 4.91688 9.53945 5.24411 9.69804 5.62697C9.85662 6.00982 9.89811 6.43111 9.81727 6.83754C9.73642 7.24398 9.53687 7.61731 9.24384 7.91034C8.95082 8.20336 8.57749 8.40292 8.17105 8.48376C7.76461 8.56461 7.34333 8.52311 6.96047 8.36453C6.57762 8.20595 6.25039 7.93739 6.02016 7.59283C5.78993 7.24827 5.66705 6.84318 5.66705 6.42878C5.66704 6.15363 5.72123 5.88117 5.82652 5.62696C5.93182 5.37275 6.08615 5.14177 6.28071 4.94721C6.47528 4.75264 6.70626 4.59831 6.96047 4.49302C7.21468 4.38772 7.48714 4.33354 7.76229 4.33354Z" fill="#CCCCCC"/>
</svg>
