<svg width="12" height="11" viewBox="0 0 12 11" fill="none" xmlns="http://www.w3.org/2000/svg">
<path fill-rule="evenodd" clip-rule="evenodd" d="M5.70711 8.5092C6.09763 8.89973 6.09763 9.53289 5.70711 9.92342C5.31658 10.3139 4.68342 10.3139 4.29289 9.92342L0.292893 5.92342C-0.097631 5.53289 -0.097631 4.89973 0.292893 4.5092L4.29289 0.509202C4.68342 0.118677 5.31658 0.118677 5.70711 0.509202C6.09763 0.899726 6.09763 1.53289 5.70711 1.92342L2.41421 5.21631L5.70711 8.5092ZM11.7071 8.5092C12.0976 8.89973 12.0976 9.53289 11.7071 9.92342C11.3166 10.3139 10.6834 10.3139 10.2929 9.92342L6.29289 5.92342C5.90237 5.53289 5.90237 4.89973 6.29289 4.5092L10.2929 0.509202C10.6834 0.118677 11.3166 0.118677 11.7071 0.509202C12.0976 0.899726 12.0976 1.53289 11.7071 1.92342L8.41421 5.21631L11.7071 8.5092Z" fill="#4F4F4F"/>
</svg>
