<svg width="12" height="11" viewBox="0 0 12 11" fill="none" xmlns="http://www.w3.org/2000/svg">
<path fill-rule="evenodd" clip-rule="evenodd" d="M0.292893 8.5092C-0.0976311 8.89973 -0.0976311 9.53289 0.292893 9.92342C0.683417 10.3139 1.31658 10.3139 1.70711 9.92342L5.70711 5.92342C6.09763 5.53289 6.09763 4.89973 5.70711 4.5092L1.70711 0.509202C1.31658 0.118677 0.683417 0.118677 0.292893 0.509202C-0.0976311 0.899726 -0.0976311 1.53289 0.292893 1.92342L3.58579 5.21631L0.292893 8.5092ZM6.29289 8.5092C5.90237 8.89973 5.90237 9.53289 6.29289 9.92342C6.68342 10.3139 7.31658 10.3139 7.70711 9.92342L11.7071 5.92342C12.0976 5.53289 12.0976 4.89973 11.7071 4.5092L7.70711 0.509202C7.31658 0.118677 6.68342 0.118677 6.29289 0.509202C5.90237 0.899726 5.90237 1.53289 6.29289 1.92342L9.58579 5.21631L6.29289 8.5092Z" fill="#4F4F4F"/>
</svg>
