<svg width="16" height="16" viewBox="0 0 16 16" fill="none" xmlns="http://www.w3.org/2000/svg">
<path d="M13.417 10.0591L10.6021 8.85277C10.4552 8.7895 10.2947 8.76402 10.1354 8.77866C9.97604 8.7933 9.8229 8.84759 9.68992 8.93658L8.18487 9.93982C7.26503 9.49244 6.52054 8.75123 6.0691 7.83338L6.06921 7.83326L7.06894 6.30568C7.15596 6.17306 7.20876 6.02094 7.2226 5.86293C7.23645 5.70492 7.21092 5.54594 7.14829 5.40021L5.9408 2.58291C5.85861 2.39167 5.71668 2.2322 5.53627 2.12838C5.35585 2.02456 5.14666 1.98197 4.94002 2.00698C4.12801 2.11139 3.38178 2.50784 2.84073 3.12228C2.29968 3.73671 2.00083 4.52711 2 5.3458C2 10.1178 5.88223 14 10.6542 14C11.4729 13.9992 12.2633 13.7003 12.8777 13.1592C13.4922 12.6182 13.8886 11.8719 13.993 11.0599C14.018 10.8533 13.9753 10.6441 13.8715 10.4637C13.7677 10.2833 13.6082 10.1414 13.417 10.0591Z" fill="#CCCCCC"/>
</svg>
