<svg width="20" height="20" viewBox="0 0 20 20" fill="none" xmlns="http://www.w3.org/2000/svg">
<path fill-rule="evenodd" clip-rule="evenodd" d="M20 10C20 15.5228 15.5228 20 10 20C4.47715 20 0 15.5228 0 10C0 4.47715 4.47715 0 10 0C15.5228 0 20 4.47715 20 10ZM10 4.5C10.5523 4.5 11 4.94772 11 5.5V10.75C11 11.3023 10.5523 11.75 10 11.75C9.44771 11.75 9 11.3023 9 10.75V5.5C9 4.94772 9.44771 4.5 10 4.5ZM10 15.25C10.6213 15.25 11.125 14.7463 11.125 14.125C11.125 13.5037 10.6213 13 10 13C9.37868 13 8.875 13.5037 8.875 14.125C8.875 14.7463 9.37868 15.25 10 15.25Z" fill="#E31E24"/>
</svg>
