<svg width="24" height="24" viewBox="0 0 24 24" fill="none" xmlns="http://www.w3.org/2000/svg">
<path d="M3 10C3 6.13401 6.13401 3 10 3C13.866 3 17 6.13401 17 10C17 13.866 13.866 17 10 17C6.13401 17 3 13.866 3 10Z" stroke="#4F4F4F" stroke-width="2" stroke-linecap="round" stroke-linejoin="round"/>
<path d="M17.1753 15.9966C17.6309 15.541 18.3696 15.541 18.8252 15.9966L21.5358 18.7072C22.3168 19.4882 22.3168 20.7545 21.5358 21.5356C20.7547 22.3166 19.4884 22.3166 18.7074 21.5356L15.9968 18.825C15.5412 18.3694 15.5412 17.6307 15.9968 17.1751L17.1753 15.9966Z" fill="#4F4F4F"/>
<line x1="14.4647" y1="14.4645" x2="19.4144" y2="19.4143" stroke="#4F4F4F" stroke-width="2"/>
</svg>
