<svg width="22" height="22" viewBox="0 0 22 22" fill="none" xmlns="http://www.w3.org/2000/svg">
<path fill-rule="evenodd" clip-rule="evenodd" d="M4.2259 16.9257C4.87781 16.0519 5.69366 15.312 6.62886 14.748C7.8063 15.8725 9.37184 16.5 11 16.5C12.6282 16.5 14.1937 15.8725 15.3711 14.748C16.3064 15.312 17.1222 16.0519 17.7741 16.9257C19.1601 15.3426 20 13.2694 20 11C20 6.02944 15.9706 2 11 2C6.02944 2 2 6.02944 2 11C2 13.2694 2.83994 15.3426 4.2259 16.9257ZM18.6124 18.9406C16.6362 20.8355 13.9541 22 11 22C8.02176 22 5.31997 20.8164 3.33933 18.8939C3.29987 18.8556 3.26071 18.817 3.22183 18.7782C1.23369 16.79 0.00305718 14.0444 5.68809e-06 11.0113C1.89633e-06 11.0075 0 11.0038 0 11C0 7.99803 1.20253 5.27693 3.15216 3.29212C3.1666 3.27741 3.18109 3.26274 3.19562 3.24812C3.21984 3.22374 3.24417 3.19947 3.26862 3.17531C3.28426 3.15985 3.29995 3.14444 3.31569 3.12907C5.29844 1.19304 8.0099 0 11 0C17.0751 0 22 4.92487 22 11C22 13.9901 20.807 16.7016 18.8709 18.6843C18.7861 18.7711 18.6999 18.8566 18.6124 18.9406ZM11 14.8077C13.5703 14.8077 15.6539 12.7241 15.6539 10.1538C15.6539 7.5836 13.5703 5.5 11 5.5C8.42979 5.5 6.34619 7.5836 6.34619 10.1538C6.34619 12.7241 8.42979 14.8077 11 14.8077Z" fill="#4F4F4F"/>
</svg>
