<svg width="24" height="24" fill="none" xmlns="http://www.w3.org/2000/svg"><path d="M2 1a1 1 0 000 2h1.976l3.83 7.814.162.435c-1.288.455-2.078 1.487-2.154 2.689-.048.77.218 1.55.792 2.137C7.186 16.668 8.02 17 9 17h11a1 1 0 100-2H9c-.52 0-.811-.168-.965-.325a.795.795 0 01-.224-.613C7.834 13.686 8.176 13 9.5 13h9.485a1.5 1.5 0 001.392-.943l2.8-7A1.5 1.5 0 0021.785 3H6.204l-.706-1.44A1 1 0 004.6 1H2zm9 19.75a2.25 2.25 0 11-4.5 0 2.25 2.25 0 014.5 0zM18.75 23a2.25 2.25 0 100-4.5 2.25 2.25 0 000 4.5z" fill="#4F4F4F"/></svg>