<svg width="18" height="16" fill="none" xmlns="http://www.w3.org/2000/svg"><path fill-rule="evenodd" clip-rule="evenodd" d="M1.5 0A1.5 1.5 0 000 1.5v1A1.5 1.5 0 001.5 4h1A1.5 1.5 0 004 2.5v-1A1.5 1.5 0 002.5 0h-1zm0 6A1.5 1.5 0 000 7.5v1A1.5 1.5 0 001.5 10h1A1.5 1.5 0 004 8.5v-1A1.5 1.5 0 002.5 6h-1zM0 13.5A1.5 1.5 0 011.5 12h1A1.5 1.5 0 014 13.5v1A1.5 1.5 0 012.5 16h-1A1.5 1.5 0 010 14.5v-1zM7.5 0A1.5 1.5 0 006 1.5v1A1.5 1.5 0 007.5 4h9A1.5 1.5 0 0018 2.5v-1A1.5 1.5 0 0016.5 0h-9zM6 7.5A1.5 1.5 0 017.5 6h9A1.5 1.5 0 0118 7.5v1a1.5 1.5 0 01-1.5 1.5h-9A1.5 1.5 0 016 8.5v-1zM7.5 12A1.5 1.5 0 006 13.5v1A1.5 1.5 0 007.5 16h9a1.5 1.5 0 001.5-1.5v-1a1.5 1.5 0 00-1.5-1.5h-9z" fill="#4F4F4F"/></svg>