<svg width="16" height="16" fill="none" xmlns="http://www.w3.org/2000/svg"><path fill-rule="evenodd" clip-rule="evenodd" d="M1.5 0A1.5 1.5 0 000 1.5v4A1.5 1.5 0 001.5 7h4A1.5 1.5 0 007 5.5v-4A1.5 1.5 0 005.5 0h-4zm9 0A1.5 1.5 0 009 1.5v4A1.5 1.5 0 0010.5 7h4A1.5 1.5 0 0016 5.5v-4A1.5 1.5 0 0014.5 0h-4zM0 10.5A1.5 1.5 0 011.5 9h4A1.5 1.5 0 017 10.5v4A1.5 1.5 0 015.5 16h-4A1.5 1.5 0 010 14.5v-4zM10.5 9A1.5 1.5 0 009 10.5v4a1.5 1.5 0 001.5 1.5h4a1.5 1.5 0 001.5-1.5v-4A1.5 1.5 0 0014.5 9h-4z" fill="#4F4F4F"/></svg>