<svg width="24" height="24" fill="none" xmlns="http://www.w3.org/2000/svg"><path d="M8 3h11.7c.345 0 .676.086.92.24.243.153.38.361.38.578v16.364c0 .217-.137.425-.38.578-.244.154-.575.24-.92.24H8" stroke="#4F4F4F" stroke-width="2" stroke-linecap="round" stroke-linejoin="round"/><path fill-rule="evenodd" clip-rule="evenodd" d="M12.53 6.22l5.249 5.249c.29.294.29.768 0 1.062l-5.25 5.249c-.468.469-1.28.14-1.28-.531V14H3.5A1.5 1.5 0 012 12.5v-1A1.5 1.5 0 013.5 10h7.749V6.751c0-.672.812-1 1.28-.531z" fill="#4F4F4F"/></svg>