<svg width="22" height="22" fill="none" xmlns="http://www.w3.org/2000/svg"><path fill-rule="evenodd" clip-rule="evenodd" d="M4.226 16.926a8.43 8.43 0 012.403-2.178 6.329 6.329 0 008.742 0 8.428 8.428 0 012.403 2.178 9 9 0 10-13.548 0zm14.386 2.015A10.963 10.963 0 0111 22a10.964 10.964 0 01-7.778-3.222A10.966 10.966 0 010 11a10.964 10.964 0 013.316-7.87A10.964 10.964 0 0111 0c6.075 0 11 4.925 11 11a10.964 10.964 0 01-3.388 7.94zM11 14.808A4.654 4.654 0 1011 5.5a4.654 4.654 0 000 9.308z" fill="#4F4F4F"/></svg>