<svg width="0" height="0" class="hidden">
  <symbol xmlns="http://www.w3.org/2000/svg" viewBox="0 0 16 16" id="catalog-type2">
    <path fill-rule="evenodd" clip-rule="evenodd" d="M1.5 0C0.671573 0 0 0.671573 0 1.5V5.5C0 6.32843 0.671573 7 1.5 7H5.5C6.32843 7 7 6.32843 7 5.5V1.5C7 0.671573 6.32843 0 5.5 0H1.5ZM10.5 0C9.67157 0 9 0.671573 9 1.5V5.5C9 6.32843 9.67157 7 10.5 7H14.5C15.3284 7 16 6.32843 16 5.5V1.5C16 0.671573 15.3284 0 14.5 0H10.5ZM0 10.5C0 9.67157 0.671573 9 1.5 9H5.5C6.32843 9 7 9.67157 7 10.5V14.5C7 15.3284 6.32843 16 5.5 16H1.5C0.671573 16 0 15.3284 0 14.5V10.5ZM10.5 9C9.67157 9 9 9.67157 9 10.5V14.5C9 15.3284 9.67157 16 10.5 16H14.5C15.3284 16 16 15.3284 16 14.5V10.5C16 9.67157 15.3284 9 14.5 9H10.5Z" ></path>
  </symbol>
  <symbol xmlns="http://www.w3.org/2000/svg" viewBox="0 0 24 24" id="basket">
    <path d="M2 1C1.44772 1 1 1.44772 1 2C1 2.55228 1.44772 3 2 3H3.9764L7.80531 10.8141L7.96831 11.2488C6.68031 11.7042 5.88953 12.7363 5.81445 13.9376C5.76631 14.7079 6.03189 15.4885 6.6058 16.0746C7.18649 16.6677 8.01974 17 9 17H20C20.5523 17 21 16.5523 21 16C21 15.4477 20.5523 15 20 15H9C8.48026 15 8.18851 14.8323 8.03482 14.6754C7.87436 14.5115 7.79619 14.2921 7.81055 14.0624C7.8341 13.6856 8.17591 13 9.5 13H18.9845C19.5978 13 20.1494 12.6266 20.3772 12.0571L23.1772 5.05709C23.5713 4.07179 22.8457 3 21.7845 3H6.21557L6.20362 3.00005L5.49799 1.55998C5.33005 1.21725 4.98167 1 4.6 1H2Z" ></path>
    <path d="M11 20.75C11 21.9926 9.99264 23 8.75 23C7.50736 23 6.5 21.9926 6.5 20.75C6.5 19.5074 7.50736 18.5 8.75 18.5C9.99264 18.5 11 19.5074 11 20.75Z"></path>
    <path d="M18.75 23C19.9926 23 21 21.9926 21 20.75C21 19.5074 19.9926 18.5 18.75 18.5C17.5074 18.5 16.5 19.5074 16.5 20.75C16.5 21.9926 17.5074 23 18.75 23Z"></path>
  </symbol>
  <symbol xmlns="http://www.w3.org/2000/svg" viewBox="0 0 18 16" id="catalog-type1">
    <path fill-rule="evenodd" clip-rule="evenodd" d="M1.5 0C0.671573 0 0 0.671573 0 1.5V2.5C0 3.32843 0.671573 4 1.5 4H2.5C3.32843 4 4 3.32843 4 2.5V1.5C4 0.671573 3.32843 0 2.5 0H1.5ZM1.5 6C0.671573 6 0 6.67157 0 7.5V8.5C0 9.32843 0.671573 10 1.5 10H2.5C3.32843 10 4 9.32843 4 8.5V7.5C4 6.67157 3.32843 6 2.5 6H1.5ZM0 13.5C0 12.6716 0.671573 12 1.5 12H2.5C3.32843 12 4 12.6716 4 13.5V14.5C4 15.3284 3.32843 16 2.5 16H1.5C0.671573 16 0 15.3284 0 14.5V13.5ZM7.5 0C6.67157 0 6 0.671573 6 1.5V2.5C6 3.32843 6.67157 4 7.5 4H16.5C17.3284 4 18 3.32843 18 2.5V1.5C18 0.671573 17.3284 0 16.5 0H7.5ZM6 7.5C6 6.67157 6.67157 6 7.5 6H16.5C17.3284 6 18 6.67157 18 7.5V8.5C18 9.32843 17.3284 10 16.5 10H7.5C6.67157 10 6 9.32843 6 8.5V7.5ZM7.5 12C6.67157 12 6 12.6716 6 13.5V14.5C6 15.3284 6.67157 16 7.5 16H16.5C17.3284 16 18 15.3284 18 14.5V13.5C18 12.6716 17.3284 12 16.5 12H7.5Z"/>
  </symbol>
  <symbol fill="#fff"  xmlns="http://www.w3.org/2000/svg" viewBox="0 0 16 16" id="arrow">
    <path d="M6 4L10 8L6 12" stroke-width="2" stroke-linecap="round" stroke-linejoin="round"/>
  </symbol>
  <symbol fill="none" xmlns="http://www.w3.org/2000/svg" viewBox="0 0 24 24" id="hide-pass">
    <path d="M4.5 3.75012L19.5 20.2501"  stroke-width="2" stroke-linecap="round" stroke-linejoin="round"/>
    <path d="M14.5223 14.7749C13.7864 15.4438 12.8149 15.793 11.8215 15.7457C10.8281 15.6983 9.89422 15.2583 9.22524 14.5225C8.55626 13.7866 8.20698 12.8151 8.25424 11.8217C8.3015 10.8283 8.74142 9.89439 9.47724 9.22534"   stroke-width="2" stroke-linecap="round" stroke-linejoin="round"/>
    <path d="M6.93698 6.43079C3.11486 8.36631 1.5 12.0001 1.5 12.0001C1.5 12.0001 4.5 18.7494 12 18.7494C13.7572 18.7634 15.4926 18.3587 17.0623 17.5687"  stroke-width="2" stroke-linecap="round" stroke-linejoin="round"/>
    <path d="M19.5571 15.8532C21.6011 14.0225 22.5 12.0001 22.5 12.0001C22.5 12.0001 19.5 5.24941 12 5.24941C11.3504 5.24834 10.7019 5.30115 10.061 5.40729"  stroke-width="2" stroke-linecap="round" stroke-linejoin="round"/>
    <path d="M12.7056 8.31653C13.5026 8.46958 14.2285 8.87692 14.7745 9.47747C15.3204 10.078 15.6569 10.8394 15.7335 11.6473"   stroke-width="2" stroke-linecap="round" stroke-linejoin="round"/>
  </symbol>
  <symbol fill="#fff" xmlns="http://www.w3.org/2000/svg" viewBox="0 0 24 24" id="show-pass">
   <path d="M12 5.24927C4.5 5.24927 1.5 12 1.5 12C1.5 12 4.5 18.7493 12 18.7493C19.5 18.7493 22.5 12 22.5 12C22.5 12 19.5 5.24927 12 5.24927Z" stroke-width="2" stroke-linecap="round" stroke-linejoin="round"/>
    <path d="M12 15.75C14.0711 15.75 15.75 14.0711 15.75 12C15.75 9.92893 14.0711 8.25 12 8.25C9.92893 8.25 8.25 9.92893 8.25 12C8.25 14.0711 9.92893 15.75 12 15.75Z"  stroke-width="2" stroke-linecap="round" stroke-linejoin="round"/>
  </symbol>
</svg>